<?xml version="1.0" encoding="UTF-8"?>
<svg id="Layer_1" data-name="Layer 1" xmlns="http://www.w3.org/2000/svg" version="1.1" viewBox="0 0 1476 2000">
  <defs>
    <style>
      .cls-1 {
        fill: #23083c;
      }

      .cls-1, .cls-2, .cls-3, .cls-4, .cls-5 {
        stroke-width: 0px;
      }

      .cls-2 {
        fill: #ffe59c;
      }

      .cls-3 {
        fill: #23073f;
        opacity: .5;
      }

      .cls-4 {
        fill: #fff;
      }

      .cls-5 {
        fill: #fed33a;
      }
    </style>
  </defs>
  <path class="cls-2" d="M1476,1997.71H156.6s-59.95-10.46-113.87-134.88c-16.64-38.39-41.71-140.57-42.73-182.4-5.39-220.92,106.14-654.43,138.44-873.04C168.03,607.13,200.15,0,200.15,0h1275.85v1997.71Z"/>
  <path class="cls-5" d="M1476,2000H225.63s-103.08-129.39-85.09-293.86c17.73-162.03,99.27-256.07,196.46-316.89,56.74-35.5,174.96-107.27,212.6-162.04,41.88-60.93,44.18-152.14,127.22-267.32s225.19-155.68,324.39-173.04c114.74-20.08,364.87-27.44,474.78,30.02,20.33,10.63,0,0,0,0v1183.13Z"/>
  <path class="cls-3" d="M1476,2000H359.93s0-152.43,73.93-281c87.13-151.52,163.01-168.11,234.64-193.71,58.73-21,187.77-8.29,249.46.86,144.06,21.36,558.04,167.14,558.04,167.14v306.71Z"/>
  <path class="cls-5" d="M91.12,0h1384.88v89.06s-79.57,47.07-104.11,65.62c-70.59,53.39-185.03,94.04-252.64,103.12-83.78,11.26-252-17.03-335.69-29-132.93-19.01-398.72-70.64-529.94-99.13C127.57,102.32,91.12,0,91.12,0Z"/>
  <g>
    <path class="cls-4" d="M669.41,456.57c-5.7,0-11.29.48-16.73,1.39-1.12.19-2.22.39-3.33.62-24.47,4.96-45.7,18.84-60.16,38.09-3.84,5.11-7.2,10.6-10.03,16.41-2.82-5.8-6.18-11.29-10.03-16.41-14.46-19.25-35.69-33.13-60.16-38.09v20.57c28.12,7.23,50.26,29.33,57.57,57.42,1.68,6.46,2.58,13.23,2.58,20.21v50.19s20.05,0,20.05,0v-50.13c0-.46,0-.92,0-1.39h0s.01,0,.01,0c24.02-4.03,45.15-16.61,60.14-34.5,10.51-12.53,18.01-27.68,21.39-44.31,1.31-6.47,2.01-13.16,2.01-20.01-1.11-.04-2.22-.06-3.34-.06ZM649.28,479.36c-8.01,26.83-29.68,47.76-56.94,54.73,7.89-27,29.59-48.1,56.94-55.14.04-.01.09-.02.13-.03-.04.14-.08.29-.13.43Z"/>
    <g>
      <path class="cls-1" d="M708.33,467.09v56.27h-10.15v-56.27h-13.47v-10.49h36.99v10.49h-13.38Z"/>
      <path class="cls-1" d="M760.09,523.36l-4.15-12.02h-23.43l-4.15,12.02h-10.79l23.06-66.77h7.2l23.06,66.77h-10.79ZM752.34,500.85l-8.12-23.46-8.03,23.46h16.14Z"/>
      <path class="cls-1" d="M817.75,512.87v10.49h-38.1v-66.77h10.15v56.27h27.95Z"/>
      <path class="cls-1" d="M836.66,467.09v17.65h27.95v10.49h-27.95v17.65h27.95v10.49h-38.1v-66.77h38.1v10.49h-27.95Z"/>
      <path class="cls-1" d="M913.42,523.36l-27.12-43.68v43.68h-10.15v-66.77h7.84l27.12,43.68v-43.68h10.15v66.77h-7.84Z"/>
      <path class="cls-1" d="M953.64,467.09v56.27h-10.15v-56.27h-13.47v-10.49h36.99v10.49h-13.38Z"/>
    </g>
    <path class="cls-4" d="M722.25,540.21c6.18,0,11.26,1.62,14.85,4.96,3.78,3.43,5.72,8.39,5.72,14.31s-1.85,10.68-5.44,14.12c3.6,3.43,5.44,8.2,5.44,14.02s-1.94,10.97-5.72,14.4c-3.6,3.34-8.67,4.96-14.85,4.96h-24.54v-66.77h24.54ZM707.86,568.35h14.39c3.6,0,6.46-.86,8.12-2.38,1.57-1.34,2.31-3.53,2.31-6.49s-.74-5.06-2.31-6.39c-1.66-1.62-4.52-2.38-8.12-2.38h-14.39v17.65ZM707.86,596.48h14.39c3.6,0,6.46-.86,8.12-2.38,1.57-1.34,2.31-3.53,2.31-6.49s-.74-5.06-2.31-6.39c-1.66-1.62-4.52-2.38-8.12-2.38h-14.39v17.65Z"/>
    <path class="cls-4" d="M788.58,606.98l-4.15-12.02h-23.43l-4.15,12.02h-10.79l23.06-66.77h7.2l23.06,66.77h-10.79ZM780.83,584.47l-8.12-23.46-8.03,23.46h16.14Z"/>
    <path class="cls-4" d="M845.41,606.98l-27.12-43.68v43.68h-10.15v-66.77h7.84l27.12,43.68v-43.68h10.15v66.77h-7.84Z"/>
    <path class="cls-4" d="M913.22,606.98h-11.72l-16.33-29.19-10.24,13.64v15.55h-10.15v-66.77h10.15v34.05l25.46-34.05h12.82l-21.4,28.61,21.4,38.15Z"/>
  </g>
</svg>