<?xml version="1.0" encoding="UTF-8"?>
<svg id="Layer_1" data-name="Layer 1" xmlns="http://www.w3.org/2000/svg" version="1.1" viewBox="0 0 519.1 476.72">
  <defs>
    <style>
      .cls-1 {
        fill: #fbb03d;
        stroke-width: 0px;
      }
    </style>
  </defs>
  <path class="cls-1" d="M508.5,0c-18.07,0-35.78,1.51-53.02,4.4-3.54.59-7.05,1.25-10.55,1.97-77.56,15.73-144.85,59.71-190.69,120.73-12.18,16.21-22.84,33.61-31.78,52-8.95-18.4-19.6-35.8-31.78-52C144.85,66.08,77.56,22.09,0,6.37v65.21c89.12,22.93,159.32,92.98,182.5,181.99,5.33,20.47,8.18,41.94,8.19,64.07v159.08h63.56v-158.91c0-1.47,0-2.93-.02-4.39h.02s.04-.01.05-.01c76.15-12.78,143.11-52.65,190.64-109.35,33.31-39.73,57.08-87.73,67.79-140.46,4.17-20.49,6.36-41.7,6.37-63.42-3.52-.12-7.05-.18-10.6-.18ZM444.71,72.27c-25.39,85.03-94.09,151.4-180.5,173.49,25.01-85.57,93.8-152.46,180.5-174.76.14-.04.27-.07.4-.11-.13.46-.26.92-.4,1.38h0Z"/>
</svg>